<svg width="104" height="73" viewBox="0 0 104 73" fill="none" xmlns="http://www.w3.org/2000/svg">
<path d="M87.2267 35.143C87.2267 53.3159 72.133 68.0479 53.514 68.0479C34.895 68.0479 19.8013 53.3159 19.8013 35.143C19.8013 16.9702 34.895 2.23815 53.514 2.23815C72.133 2.23815 87.2267 16.9702 87.2267 35.143Z" fill="#00D1B2"/>
<path fill-rule="evenodd" clip-rule="evenodd" d="M89.2267 35.143C89.2267 54.394 73.2376 70 53.514 70C33.7904 70 17.8013 54.394 17.8013 35.143C17.8013 15.8921 33.7904 0.286076 53.514 0.286076C73.2376 0.286076 89.2267 15.8921 89.2267 35.143ZM53.514 68.0479C72.133 68.0479 87.2267 53.3159 87.2267 35.143C87.2267 16.9702 72.133 2.23815 53.514 2.23815C34.895 2.23815 19.8013 16.9702 19.8013 35.143C19.8013 53.3159 34.895 68.0479 53.514 68.0479Z" fill="#333333"/>
<path fill-rule="evenodd" clip-rule="evenodd" d="M49.514 64.1438C68.133 64.1438 83.2267 49.4117 83.2267 31.2389C83.2267 23.1463 80.2336 15.7361 75.2689 10.0052C82.5826 16.0411 87.2267 25.0627 87.2267 35.143C87.2267 53.3159 72.133 68.0479 53.514 68.0479C43.1862 68.0479 33.9431 63.5152 27.759 56.3767C33.6306 61.2224 41.2227 64.1438 49.514 64.1438Z" fill="#333333"/>
<path d="M61.8596 51.8039C88.7253 36.6647 106.092 16.9326 100.649 7.731C97.3595 2.17004 86.4919 1.72791 72.4772 5.59028C74.3556 6.776 76.3506 8.33313 77.1133 8.96347C84.3 7.74376 89.5177 8.48473 91.3032 11.5032C95.2655 18.2017 80.8246 33.5796 59.0486 45.8508C37.2725 58.122 16.4075 62.6395 12.4451 55.941C10.5265 52.6975 12.9228 47.4189 18.3775 41.4434C18.0011 39.5416 17.7965 36.7637 17.7855 35.5854C5.78934 46.2715 -0.165863 56.5952 3.35958 62.5551C8.80252 71.7567 34.9939 66.9432 61.8596 51.8039Z" fill="#00D1B2"/>
<path fill-rule="evenodd" clip-rule="evenodd" d="M19.7448 31.1972L19.7854 35.5677C19.7955 36.6557 19.9926 39.3121 20.3412 41.0732L20.5288 42.0211L19.8708 42.742C17.221 45.6448 15.4179 48.2701 14.4961 50.4588C13.5607 52.68 13.666 54.1007 14.1772 54.965C14.7053 55.8578 15.9798 56.6807 18.5693 56.9772C21.1133 57.2685 24.5291 56.9924 28.6336 56.1038C36.8185 54.3316 47.287 50.2245 58.0486 44.1602C68.8101 38.0959 77.6886 31.3007 83.3534 25.2683C86.1941 22.2432 88.1469 19.4939 89.1605 17.1979C90.1922 14.8608 90.0993 13.3721 89.5712 12.4792C89.0955 11.6752 88.0222 10.9275 85.8924 10.5675C83.7797 10.2103 80.9304 10.297 77.4559 10.8867L76.5346 11.0431L75.8209 10.4532C75.0953 9.85352 73.1719 8.35356 71.3911 7.22943L67.6769 4.88483L71.9338 3.71166C79.061 1.74744 85.5267 0.835669 90.7203 1.17928C95.8397 1.51798 100.235 3.1273 102.381 6.75496C104.158 9.75834 103.928 13.3849 102.538 17.0482C101.143 20.7261 98.4817 24.7286 94.8871 28.8128C87.6853 36.9956 76.4345 45.8448 62.8596 53.4945C49.2847 61.1442 35.8075 66.2296 24.9461 68.2257C19.525 69.222 14.6431 69.4699 10.6821 68.8104C6.73686 68.1535 3.4041 66.5346 1.62753 63.5312C-0.666229 59.6535 0.33994 54.768 2.98729 49.9239C5.68173 44.9936 10.3467 39.569 16.4373 34.1435L19.7448 31.1972ZM75.0286 4.92612C87.8012 1.80174 97.562 2.51237 100.649 7.731C106.092 16.9326 88.7253 36.6647 61.8596 51.8039C34.9939 66.9432 8.80252 71.7567 3.35958 62.5551C0.0276628 56.9224 5.1641 47.3918 15.8651 37.3413C16.4867 36.7575 17.127 36.172 17.7855 35.5854C17.7908 36.1511 17.8407 37.0855 17.9328 38.1147C18.0325 39.2292 18.1818 40.4547 18.3775 41.4434C12.9228 47.4189 10.5265 52.6975 12.4451 55.941C16.4075 62.6395 37.2725 58.122 59.0486 45.8508C80.8246 33.5796 95.2655 18.2017 91.3032 11.5032C89.5177 8.48473 84.3 7.74376 77.1133 8.96347C76.6431 8.57489 75.7046 7.8341 74.6139 7.04524C73.9352 6.55445 73.1977 6.04505 72.4772 5.59029C73.34 5.35252 74.1908 5.13107 75.0286 4.92612Z" fill="#333333"/>
<path fill-rule="evenodd" clip-rule="evenodd" d="M98.649 6.75496C104.092 15.9565 86.7253 35.6886 59.8596 50.8279C37.6098 63.366 15.8225 68.8218 5.90079 65.0995C14.6061 70.5653 37.9661 65.2683 61.8596 51.804C88.7253 36.6647 106.092 16.9326 100.649 7.731C99.7138 6.15004 98.1661 4.98281 96.1078 4.21059C97.1907 4.8905 98.0468 5.73696 98.649 6.75496ZM75.7445 7.88456C76.3342 8.3334 76.8168 8.71845 77.1133 8.96347C81.6057 8.20103 85.3287 8.20473 87.925 9.05194C85.5549 7.36191 81.2628 7.02301 75.7445 7.88456ZM18.0145 38.944C17.4496 39.4277 16.8375 39.9796 16.3775 40.4674C12.1472 44.9528 8.52651 51.7214 10.4451 54.965C11.1145 56.0966 12.2663 56.9081 13.8234 57.4162C13.2469 57.0051 12.7841 56.5141 12.4451 55.941C10.5265 52.6975 12.9228 47.4189 18.3775 41.4434C18.2295 40.6956 18.108 39.8123 18.0145 38.944Z" fill="#333333"/>
<path fill-rule="evenodd" clip-rule="evenodd" d="M88.9525 5.17182C86.5026 5.02142 83.7964 5.29713 81.3081 5.74053C81.0364 5.78894 80.776 5.61324 80.7264 5.3481C80.6768 5.08296 80.8568 4.82877 81.1285 4.78036C83.6611 4.32907 86.4548 4.04052 89.0153 4.19771C91.5639 4.35417 93.9555 4.95658 95.6084 6.35593C95.817 6.53253 95.8394 6.84075 95.6585 7.04436C95.4776 7.24796 95.1618 7.26986 94.9532 7.09325C93.5436 5.89996 91.4143 5.32295 88.9525 5.17182Z" fill="#333333"/>
<path fill-rule="evenodd" clip-rule="evenodd" d="M39.2258 59.7474C39.4559 60.2375 39.2355 60.8168 38.7334 61.0414C30.1655 64.8742 19.6672 66.0285 15.467 66.132C14.9149 66.1456 14.456 65.7198 14.4421 65.1809C14.4281 64.6421 14.8644 64.1942 15.4165 64.1806C19.4664 64.0808 29.668 62.9495 37.9001 59.2668C38.4022 59.0422 38.9957 59.2574 39.2258 59.7474Z" fill="#00D1B2"/>
<path d="M75.3745 27.8315C75.3745 28.8086 74.5631 29.6006 73.562 29.6006C72.561 29.6006 71.7495 28.8086 71.7495 27.8315C71.7495 26.8545 72.561 26.0625 73.562 26.0625C74.5631 26.0625 75.3745 26.8545 75.3745 27.8315Z" fill="#333333"/>
<path d="M45.3892 11.7741C45.3892 12.7511 44.5777 13.5431 43.5767 13.5431C42.5757 13.5431 41.7642 12.7511 41.7642 11.7741C41.7642 10.797 42.5757 10.005 43.5767 10.005C44.5777 10.005 45.3892 10.797 45.3892 11.7741Z" fill="#333333"/>
<path d="M32.1919 25.2694C32.1919 26.2465 31.3804 27.0385 30.3794 27.0385C29.3784 27.0385 28.5669 26.2465 28.5669 25.2694C28.5669 24.2924 29.3784 23.5004 30.3794 23.5004C31.3804 23.5004 32.1919 24.2924 32.1919 25.2694Z" fill="#333333"/>
<path d="M41.1294 43.0821C41.1294 44.5982 39.8702 45.8272 38.3169 45.8272C36.7636 45.8272 35.5044 44.5982 35.5044 43.0821C35.5044 41.566 36.7636 40.337 38.3169 40.337C39.8702 40.337 41.1294 41.566 41.1294 43.0821Z" fill="#333333"/>
<path d="M53.774 25.0864C53.774 26.6025 52.5148 27.8315 50.9615 27.8315C49.4082 27.8315 48.149 26.6025 48.149 25.0864C48.149 23.5703 49.4082 22.3413 50.9615 22.3413C52.5148 22.3413 53.774 23.5703 53.774 25.0864Z" fill="#333333"/>
<path d="M67.6538 13.5431C67.6538 15.0592 66.3946 16.2883 64.8413 16.2883C63.288 16.2883 62.0288 15.0592 62.0288 13.5431C62.0288 12.0271 63.288 10.798 64.8413 10.798C66.3946 10.798 67.6538 12.0271 67.6538 13.5431Z" fill="#333333"/>
<path d="M63.1181 40.337C63.1181 41.8531 61.8589 43.0821 60.3056 43.0821C58.7523 43.0821 57.4931 41.8531 57.4931 40.337C57.4931 38.8209 58.7523 37.5919 60.3056 37.5919C61.8589 37.5919 63.1181 38.8209 63.1181 40.337Z" fill="#333333"/>
</svg>
